<svg xmlns="http://www.w3.org/2000/svg" width="160" height="160" viewBox="0 0 160 160"><defs><linearGradient id="m6gda" x1="69.59" x2="96.83" y1="44" y2="83.92" gradientUnits="userSpaceOnUse"><stop offset="0" stop-color="#fff"/><stop offset="1" stop-color="#ddebf1"/></linearGradient><clipPath id="m6gdb"><path fill="#fff" d="M63.008 84.96V43.04h39.984v41.92zm24.238-2.056l14.589 1.014-24.47-39.836s-1.189-.267-1.893.165c-.743.457-1.003 1.614-1.003 1.614l6.228 10.14-2.059-1.728-5.783-9.415s-1.223-.247-1.894.165c-.77.474-.28 1.17-.28 1.17l6.23 10.14-2.06-1.729-5.338-8.691s-1.19-.267-1.894.165c-.744.457-.28 1.17-.28 1.17l7.119 11.588-2.949-3.176-4.449-7.243s-1.448.594-2.173 1.334c-.395.404-.279 1.17-.279 1.17l8.898 14.486-4.346 2.669s-.387.993.166 1.893c.559.91 1.614 1.004 1.614 1.004l8.743-.383z"/></clipPath><linearGradient id="m6gdc" x1="50.21" x2="104.21" y1="88.32" y2="87.92" gradientUnits="userSpaceOnUse"><stop offset="0" stop-color="#43c0b9"/><stop offset="1" stop-color="#15eaa6"/></linearGradient><clipPath id="m6gdd"><path fill="#fff" d="M49 100V76h56v24zm8.862-13.583l-7.65 11.9h50.151s.85-.874.85-1.7c0-.872-.85-1.7-.85-1.7h-11.9l2.55-.85h11.05s.85-.912.85-1.7c0-.904-.85-.85-.85-.85h-11.9l2.55-.85h10.2s.85-.874.85-1.7c0-.872-.85-.85-.85-.85h-13.6l4.25-.85h8.5s.252-1.545 0-2.55c-.137-.547-.85-.85-.85-.85h-17v-5.1s-.644-.85-1.7-.85c-1.069 0-1.7.85-1.7.85l-4.25 7.65z"/></clipPath><linearGradient id="m6gde" x1="70.99" x2="38.99" y1="51.72" y2="97.45" gradientUnits="userSpaceOnUse"><stop offset="0" stop-color="#7ed5d2"/><stop offset="1" stop-color="#bffff5"/></linearGradient><clipPath id="m6gdf"><path fill="#fff" d="M38 99.974V49.026h35v50.948zm33.463-37.357l-6.8-11.9L38.992 89.3s.24 1.196.921 1.663c.72.494 1.883.261 1.883.261l6.735-9.81-.743 2.583-6.253 9.11s.271 1.217.92 1.663c.746.512 1.182-.22 1.182-.22l6.735-9.81-.742 2.583-5.773 8.41s.24 1.195.92 1.662c.72.494 1.182-.22 1.182-.22l7.697-11.212-1.704 3.985-4.811 7.008s1.132 1.081 2.102 1.443c.53.197 1.182-.22 1.182-.22l9.622-14.016 4.204 2.887s1.065-.05 1.663-.92c.605-.882.262-1.883.262-1.883l-3.902-7.834z"/></clipPath></defs><g><g><g opacity=".15"><path fill="#fff" d="M90.243 10.947L127.49 25.53c25.713 10.068 38.396 39.075 28.327 64.788l-14.584 37.247c-10.069 25.713-39.076 38.396-64.789 28.327L39.198 141.31C13.484 131.24.802 102.233 10.87 76.52l14.585-37.246C35.523 13.56 64.53.878 90.243 10.947z"/></g><g><path fill="#fff" d="M83.243 3.946l37.247 14.585c25.713 10.068 38.396 39.075 28.327 64.788l-14.584 37.247c-10.069 25.713-39.076 38.396-64.789 28.327L32.198 134.31C6.484 124.24-6.198 95.233 3.87 69.52l14.585-37.246C28.523 6.56 57.53-6.122 83.243 3.946z"/></g><g><path fill="url(#m6gda)" d="M87.246 82.904l14.589 1.014-24.47-39.836s-1.189-.267-1.893.165c-.743.457-1.003 1.614-1.003 1.614l6.228 10.14-2.059-1.728-5.783-9.415s-1.223-.247-1.894.165c-.77.474-.28 1.17-.28 1.17l6.23 10.14-2.06-1.729-5.338-8.691s-1.19-.267-1.894.165c-.744.457-.28 1.17-.28 1.17l7.119 11.588-2.949-3.176-4.449-7.243s-1.448.594-2.173 1.334c-.395.404-.279 1.17-.279 1.17l8.898 14.486-4.346 2.669s-.387.993.166 1.893c.559.91 1.614 1.004 1.614 1.004l8.743-.383z"/><path fill="none" stroke="#2589a6" stroke-linecap="round" stroke-linejoin="round" stroke-miterlimit="20" stroke-width="2" d="M87.246 82.904v0l14.589 1.014v0l-24.47-39.836v0s-1.189-.267-1.893.165c-.743.457-1.003 1.614-1.003 1.614v0l6.228 10.14v0l-2.059-1.728v0l-5.783-9.415v0s-1.223-.247-1.894.165c-.77.474-.28 1.17-.28 1.17v0l6.23 10.14v0l-2.06-1.729v0l-5.338-8.691v0s-1.19-.267-1.894.165c-.744.457-.28 1.17-.28 1.17v0l7.119 11.588v0l-2.949-3.176v0l-4.449-7.243v0s-1.448.594-2.173 1.334c-.395.404-.279 1.17-.279 1.17v0l8.898 14.486v0l-4.346 2.669v0s-.387.993.166 1.893c.559.91 1.614 1.004 1.614 1.004v0l8.743-.383v0z" clip-path="url(&quot;#m6gdb&quot;)"/></g><g><path fill="url(#m6gdc)" d="M57.862 86.417l-7.65 11.9h50.151s.85-.874.85-1.7c0-.872-.85-1.7-.85-1.7h-11.9l2.55-.85h11.05s.85-.912.85-1.7c0-.904-.85-.85-.85-.85h-11.9l2.55-.85h10.2s.85-.874.85-1.7c0-.872-.85-.85-.85-.85h-13.6l4.25-.85h8.5s.252-1.545 0-2.55c-.137-.547-.85-.85-.85-.85h-17v-5.1s-.644-.85-1.7-.85c-1.069 0-1.7.85-1.7.85l-4.25 7.65z"/><path fill="none" stroke="#2589a6" stroke-linecap="round" stroke-linejoin="round" stroke-miterlimit="20" stroke-width="2" d="M57.862 86.417v0l-7.65 11.9v0h50.151v0s.85-.874.85-1.7c0-.872-.85-1.7-.85-1.7v0h-11.9v0l2.55-.85v0h11.05v0s.85-.912.85-1.7c0-.904-.85-.85-.85-.85v0h-11.9v0l2.55-.85v0h10.2v0s.85-.874.85-1.7c0-.872-.85-.85-.85-.85v0h-13.6v0l4.25-.85v0h8.5v0s.252-1.545 0-2.55c-.137-.547-.85-.85-.85-.85v0h-17v0-5.1 0s-.644-.85-1.7-.85c-1.069 0-1.7.85-1.7.85v0l-4.25 7.65v0z" clip-path="url(&quot;#m6gdd&quot;)"/></g><g><path fill="url(#m6gde)" d="M71.463 62.617l-6.8-11.9L38.992 89.3s.24 1.196.921 1.663c.72.494 1.883.261 1.883.261l6.735-9.81-.743 2.583-6.253 9.11s.271 1.217.92 1.663c.746.512 1.182-.22 1.182-.22l6.735-9.81-.742 2.583-5.773 8.41s.24 1.195.92 1.662c.72.494 1.182-.22 1.182-.22l7.697-11.212-1.704 3.985-4.811 7.008s1.132 1.081 2.102 1.443c.53.197 1.182-.22 1.182-.22l9.622-14.016 4.204 2.887s1.065-.05 1.663-.92c.605-.882.262-1.883.262-1.883l-3.902-7.834z"/><path fill="none" stroke="#2589a6" stroke-linecap="round" stroke-linejoin="round" stroke-miterlimit="20" stroke-width="2" d="M71.463 62.617v0l-6.8-11.9v0L38.992 89.3v0s.24 1.196.921 1.663c.72.494 1.883.261 1.883.261v0l6.735-9.81v0l-.743 2.583v0l-6.253 9.11v0s.271 1.217.92 1.663c.746.512 1.182-.22 1.182-.22v0l6.735-9.81v0l-.742 2.583v0l-5.773 8.41v0s.24 1.195.92 1.662c.72.494 1.182-.22 1.182-.22v0l7.697-11.212v0l-1.704 3.985v0l-4.811 7.008v0s1.132 1.081 2.102 1.443c.53.197 1.182-.22 1.182-.22v0l9.622-14.016v0l4.204 2.887v0s1.065-.05 1.663-.92c.605-.882.262-1.883.262-1.883v0l-3.902-7.834v0z" clip-path="url(&quot;#m6gdf&quot;)"/></g><g><path fill="#28a7aa" d="M42.971 113.799v-2.202h-2.676v2.202h-1.028v-5.446h1.028v2.295h2.676v-2.295h1.02v5.446zm6.938-1.035h-2.847l-.467 1.027h-1.113l2.443-5.446h1.12l2.444 5.446h-1.12zm-1.423-3.275l-1.012 2.318h2.023zm8.136-1.152h1.027v5.454h-.638v.008l-2.863-3.68v3.672H53.12v-5.446h.832l2.669 3.377zm7.849 2.684c.023 1.378-.817 2.77-2.724 2.77h-2.14v-5.446h2.14c1.868 0 2.7 1.33 2.724 2.676zm-3.844 1.782h1.12c1.238 0 1.728-.902 1.704-1.79-.023-.847-.52-1.696-1.704-1.696h-1.12zm13.621-1.704c-.015 1.408-.88 2.817-2.793 2.817-1.914 0-2.801-1.377-2.801-2.81 0-1.43.918-2.87 2.8-2.87 1.876 0 2.81 1.44 2.794 2.863zm-4.583.024c.024.894.506 1.851 1.79 1.851s1.766-.964 1.782-1.86c.015-.917-.498-1.945-1.782-1.945s-1.813 1.035-1.79 1.954zm6.425 2.668v-5.438h3.914v.988h-2.887v1.486h2.731v.95h-2.731v2.014zm12.08.008v-2.202h-2.676v2.202h-1.027v-5.446h1.027v2.295h2.677v-2.295h1.02v5.446zm7.134-.008h-4.077v-5.446h4.077v.996h-3.058v1.252h2.949v.957h-2.95v1.23h3.059zm2.908-5.446v4.497h2.8v.95h-3.827v-5.447zm5.639 2.902h1.54c1.316 0 1.308-1.93 0-1.93h-1.54zm1.54.942h-1.54v1.602h-1.027v-5.446c.856 0 1.712-.008 2.568-.008 2.66 0 2.668 3.852 0 3.852z"/></g></g></g></svg>