<svg xmlns="http://www.w3.org/2000/svg" width="256" height="111" viewBox="0 0 256 111"><defs><linearGradient id="rmfaa" x1="47.8" x2="67.56" y1="38.58" y2="66.18" gradientUnits="userSpaceOnUse"><stop offset="0" stop-color="#fff"/><stop offset="1" stop-color="#ddebf1"/></linearGradient><clipPath id="rmfab"><path fill="#fff" d="M43.005 67.972V37.028h28.99v30.944zm17.461-2.49l10.09.702-16.923-27.552s-.823-.184-1.31.115c-.514.316-.694 1.116-.694 1.116l4.308 7.013-1.424-1.195-4-6.512s-.846-.17-1.31.114c-.533.328-.193.809-.193.809l4.308 7.013-1.424-1.195-3.693-6.011s-.822-.185-1.31.114c-.514.316-.192.809-.192.809l4.923 8.015-2.04-2.197-3.077-5.01s-1.001.412-1.502.924c-.274.279-.194.808-.194.808l6.154 10.019-3.005 1.846s-.268.687.114 1.31c.387.63 1.116.694 1.116.694l6.047-.265z"/></clipPath><linearGradient id="rmfac" x1="34.85" x2="71.85" y1="69.14" y2="69.03" gradientUnits="userSpaceOnUse"><stop offset="0" stop-color="#43c0b9"/><stop offset="1" stop-color="#15eaa6"/></linearGradient><clipPath id="rmfad"><path fill="#fff" d="M33 78V61h40v17zm7.144-10.088l-5.291 8.23h34.685s.588-.604.588-1.175c0-.604-.588-1.176-.588-1.176h-8.23l1.764-.587h7.642s.588-.632.588-1.176c0-.626-.588-.588-.588-.588h-8.23l1.763-.588h7.055s.588-.605.588-1.176c0-.604-.588-.588-.588-.588h-9.406l2.94-.588h5.878s.174-1.068 0-1.763c-.095-.38-.588-.588-.588-.588H58.368v-3.527s-.444-.588-1.175-.588c-.74 0-1.176.588-1.176.588l-2.94 5.29z"/></clipPath><linearGradient id="rmfae" x1="49.09" x2="27.09" y1="43.22" y2="76.24" gradientUnits="userSpaceOnUse"><stop offset="0" stop-color="#7ed5d2"/><stop offset="1" stop-color="#bffff5"/></linearGradient><clipPath id="rmfaf"><path fill="#fff" d="M26 77.982V42.018h25v35.964zm23.55-26.53l-4.703-8.23-17.753 26.684s.166.827.637 1.15c.497.342 1.302.181 1.302.181l4.658-6.785-.514 1.786-4.325 6.301s.188.842.637 1.15c.516.354.817-.152.817-.152l4.658-6.785-.513 1.786-3.993 5.817s.166.827.637 1.15c.497.341.817-.152.817-.152l5.324-7.755-1.18 2.756-3.326 4.847s.782.748 1.453.998c.366.136.818-.152.818-.152l6.654-9.694 2.908 1.997s.737-.034 1.15-.637c.419-.609.181-1.302.181-1.302l-2.698-5.418z"/></clipPath></defs><g><g><g opacity=".15"><path fill="#fff" d="M62.54 7.715L88.3 17.802c17.783 6.964 26.555 27.025 19.591 44.81l-10.087 25.76c-6.963 17.783-27.025 26.555-44.809 19.591l-25.76-10.087C9.451 90.913.68 70.851 7.643 53.067l10.087-25.76C24.694 9.523 44.756.752 62.54 7.715z"/></g><g><path fill="#fff" d="M57.698 2.874l25.76 10.087c17.784 6.963 26.556 27.025 19.592 44.809L92.963 83.53C86 101.314 65.938 110.085 48.154 103.122l-25.76-10.087C4.61 86.071-4.162 66.01 2.802 48.225l10.087-25.76C19.852 4.683 39.914-4.088 57.698 2.876z"/></g><g><path fill="url(#rmfaa)" d="M60.466 65.482l10.09.702-16.923-27.552s-.823-.184-1.31.115c-.514.316-.694 1.116-.694 1.116l4.308 7.013-1.424-1.195-4-6.512s-.846-.17-1.31.114c-.533.328-.193.809-.193.809l4.308 7.013-1.424-1.195-3.693-6.011s-.822-.185-1.31.114c-.514.316-.192.809-.192.809l4.923 8.015-2.04-2.197-3.077-5.01s-1.001.412-1.502.924c-.274.279-.194.808-.194.808l6.154 10.019-3.005 1.846s-.268.687.114 1.31c.387.63 1.116.694 1.116.694l6.047-.265z"/><path fill="none" stroke="#2589a6" stroke-linecap="round" stroke-linejoin="round" stroke-miterlimit="20" stroke-width="2" d="M60.466 65.482v0l10.09.702v0L53.633 38.632v0s-.823-.184-1.31.115c-.514.316-.694 1.116-.694 1.116v0l4.308 7.013v0l-1.424-1.195v0l-4-6.512v0s-.846-.17-1.31.114c-.533.328-.193.809-.193.809v0l4.308 7.013v0l-1.424-1.195v0L48.2 39.899v0s-.822-.185-1.31.114c-.514.316-.192.809-.192.809v0l4.923 8.015v0l-2.04-2.197v0l-3.077-5.01v0s-1.001.412-1.502.924c-.274.279-.194.808-.194.808v0l6.154 10.019v0l-3.005 1.846v0s-.268.687.114 1.31c.387.63 1.116.694 1.116.694v0l6.047-.265v0z" clip-path="url(&quot;#rmfab&quot;)"/></g><g><path fill="url(#rmfac)" d="M40.144 67.912l-5.291 8.23h34.685s.588-.604.588-1.175c0-.604-.588-1.176-.588-1.176h-8.23l1.764-.587h7.642s.588-.632.588-1.176c0-.626-.588-.588-.588-.588h-8.23l1.763-.588h7.055s.588-.605.588-1.176c0-.604-.588-.588-.588-.588h-9.406l2.94-.588h5.878s.174-1.068 0-1.763c-.095-.38-.588-.588-.588-.588H58.368v-3.527s-.444-.588-1.175-.588c-.74 0-1.176.588-1.176.588l-2.94 5.29z"/><path fill="none" stroke="#2589a6" stroke-linecap="round" stroke-linejoin="round" stroke-miterlimit="20" stroke-width="2" d="M40.144 67.912v0l-5.291 8.23v0h34.685v0s.588-.604.588-1.175c0-.604-.588-1.176-.588-1.176v0h-8.23v0l1.764-.587v0h7.642v0s.588-.632.588-1.176c0-.626-.588-.588-.588-.588v0h-8.23v0l1.763-.588v0h7.055v0s.588-.605.588-1.176c0-.604-.588-.588-.588-.588v0h-9.406v0l2.94-.588v0h5.878v0s.174-1.068 0-1.763c-.095-.38-.588-.588-.588-.588v0H58.368v0-3.527 0s-.444-.588-1.175-.588c-.74 0-1.176.588-1.176.588v0l-2.94 5.29v0z" clip-path="url(&quot;#rmfad&quot;)"/></g><g><path fill="url(#rmfae)" d="M49.55 51.452l-4.703-8.23-17.753 26.684s.166.827.637 1.15c.497.342 1.302.181 1.302.181l4.658-6.785-.514 1.786-4.325 6.301s.188.842.637 1.15c.516.354.817-.152.817-.152l4.658-6.785-.513 1.786-3.993 5.817s.166.827.637 1.15c.497.341.817-.152.817-.152l5.324-7.755-1.18 2.756-3.326 4.847s.782.748 1.453.998c.366.136.818-.152.818-.152l6.654-9.694 2.908 1.997s.737-.034 1.15-.637c.419-.609.181-1.302.181-1.302l-2.698-5.418z"/><path fill="none" stroke="#2589a6" stroke-linecap="round" stroke-linejoin="round" stroke-miterlimit="20" stroke-width="2" d="M49.55 51.452v0l-4.703-8.23v0L27.094 69.905v0s.166.827.637 1.15c.497.342 1.302.181 1.302.181v0l4.658-6.785v0l-.514 1.786v0l-4.325 6.301v0s.188.842.637 1.15c.516.354.817-.152.817-.152v0l4.658-6.785v0l-.513 1.786v0l-3.993 5.817v0s.166.827.637 1.15c.497.341.817-.152.817-.152v0l5.324-7.755v0l-1.18 2.756v0l-3.326 4.847v0s.782.748 1.453.998c.366.136.818-.152.818-.152v0l6.654-9.694v0l2.908 1.997v0s.737-.034 1.15-.637c.419-.609.181-1.302.181-1.302v0l-2.698-5.418v0z" clip-path="url(&quot;#rmfaf&quot;)"/></g><g><path fill="#28a7aa" d="M133.068 63.756v-4.254h-5.104v4.254h-1.958V53.233h1.958v4.435h5.104v-4.435h1.943v10.523zm13.228-2h-5.43l-.89 1.985h-2.12l4.657-10.523h2.137l4.658 10.523h-2.136zm-2.714-6.328l-1.929 4.48h3.857zm15.513-2.225h1.958V63.74h-1.216v.015l-5.46-7.11v7.095h-1.958V53.218h1.587l5.089 6.524zm14.965 5.186c.044 2.661-1.558 5.352-5.193 5.352h-4.08V53.218h4.08c3.56 0 5.148 2.57 5.193 5.171zm-7.329 3.443h2.136c2.36 0 3.294-1.744 3.25-3.458-.045-1.638-.995-3.277-3.25-3.277h-2.136zm25.97-3.293c-.029 2.722-1.675 5.443-5.325 5.443-3.65 0-5.34-2.661-5.34-5.428 0-2.766 1.75-5.547 5.34-5.547 3.575 0 5.356 2.781 5.326 5.532zm-8.737.046c.044 1.728.964 3.578 3.412 3.578s3.368-1.865 3.397-3.593c.03-1.774-.95-3.759-3.397-3.759-2.448 0-3.456 2-3.412 3.774zm12.25 5.156V53.233h7.462v1.909h-5.504v2.871h5.207v1.834h-5.207v3.894zm23.034.015v-4.254h-5.104v4.254h-1.958V53.233h1.958v4.435h5.104v-4.435h1.943v10.523zm13.6-.015h-7.774V53.218h7.773v1.924h-5.83v2.42h5.623v1.85h-5.623v2.375h5.83zm5.544-10.523v8.689h5.34v1.834h-7.298V53.218zm10.752 5.607h2.938c2.507 0 2.492-3.728 0-3.728h-2.938zm2.938 1.82h-2.938v3.096h-1.958V53.218c1.632 0 3.264-.015 4.896-.015 5.073 0 5.088 7.441 0 7.441z"/></g></g></g></svg>